<svg width="30" height="30" viewBox="0 0 30 30" fill="none" xmlns="http://www.w3.org/2000/svg">
    <path
        d="M25.7812 5.39062H20.8594V3.51562C20.8594 3.38672 20.7539 3.28125 20.625 3.28125H18.9844C18.8555 3.28125 18.75 3.38672 18.75 3.51562V5.39062H11.25V3.51562C11.25 3.38672 11.1445 3.28125 11.0156 3.28125H9.375C9.24609 3.28125 9.14062 3.38672 9.14062 3.51562V5.39062H4.21875C3.7002 5.39062 3.28125 5.80957 3.28125 6.32812V25.7812C3.28125 26.2998 3.7002 26.7188 4.21875 26.7188H25.7812C26.2998 26.7188 26.7188 26.2998 26.7188 25.7812V6.32812C26.7188 5.80957 26.2998 5.39062 25.7812 5.39062ZM24.6094 24.6094H5.39062V13.4766H24.6094V24.6094ZM5.39062 11.4844V7.5H9.14062V8.90625C9.14062 9.03516 9.24609 9.14062 9.375 9.14062H11.0156C11.1445 9.14062 11.25 9.03516 11.25 8.90625V7.5H18.75V8.90625C18.75 9.03516 18.8555 9.14062 18.9844 9.14062H20.625C20.7539 9.14062 20.8594 9.03516 20.8594 8.90625V7.5H24.6094V11.4844H5.39062Z"
        fill="#1B1F23" />
</svg>