<svg width="29" height="30" viewBox="0 0 30 30" fill="none" xmlns="http://www.w3.org/2000/svg">
    <path fill-rule="evenodd" clip-rule="evenodd"
        d="M22.0898 0C26.2812 0 29 2.8125 29 7.14845V22.8515C29 27.1875 26.2812 30 22.0898 30H6.91017C2.71875 30 0 27.1875 0 22.8515V7.14845C0 2.8125 2.71875 0 6.91017 0H22.0898Z"
        fill="white" />
    <path fill-rule="evenodd" clip-rule="evenodd"
        d="M22.0898 0C26.2812 0 29 2.8125 29 7.14845V22.8515C29 27.1875 26.2812 30 22.0898 30H6.91017C2.71875 30 0 27.1875 0 22.8515V7.14845C0 2.8125 2.71875 0 6.91017 0H22.0898Z"
        fill="white" />
    <path fill-rule="evenodd" clip-rule="evenodd"
        d="M11.727 5.54726C9.38324 6.37836 7.38615 8.19604 6.27378 10.4963C5.88576 11.2899 5.60637 12.1317 5.43564 13.0057C5.01139 15.1719 5.3063 17.4829 6.26861 19.4561C6.89465 20.743 7.79488 21.8904 8.88139 22.7859C9.91097 23.633 11.1061 24.2658 12.3789 24.6143C13.9827 25.0593 15.6901 25.0486 17.3043 24.6679C18.7633 24.3194 20.1447 23.5955 21.2468 22.5446C22.4108 21.4347 23.2438 19.9762 23.6836 18.4052C24.1647 16.6947 24.2268 14.8663 23.9269 13.1076C20.9104 13.1076 17.889 13.1076 14.8726 13.1076C14.8726 14.4052 14.8726 15.7027 14.8726 17.0003C16.6214 17.0003 18.3701 17.0003 20.1189 17.0003C19.9171 18.2443 19.2031 19.381 18.1942 20.0834C17.5578 20.5285 16.8283 20.8127 16.073 20.9521C15.3176 21.0861 14.5312 21.1022 13.7758 20.9467C13.0049 20.7859 12.2754 20.4534 11.6338 19.9869C10.6094 19.2416 9.82819 18.1532 9.42981 16.9253C9.02108 15.6759 9.0159 14.2872 9.42981 13.0432C9.71954 12.1639 10.1955 11.3542 10.8267 10.6893C11.6028 9.86361 12.6117 9.27379 13.7034 9.03251C14.6346 8.82876 15.6177 8.86629 16.5283 9.15046C17.3043 9.39176 18.0183 9.83679 18.6029 10.4159C19.1928 9.80464 19.7826 9.19336 20.3724 8.58211C20.6828 8.25504 21.0088 7.93866 21.3088 7.60086C20.4138 6.74296 19.3583 6.05126 18.2097 5.61159C16.1402 4.81804 13.812 4.80194 11.727 5.54726Z"
        fill="white" />
    <path fill-rule="evenodd" clip-rule="evenodd"
        d="M11.727 5.54691C13.8068 4.80158 16.1402 4.81768 18.2097 5.60588C19.3583 6.04556 20.4086 6.73188 21.3088 7.59516C21.0088 7.93296 20.6828 8.24931 20.3724 8.57638C19.7826 9.18766 19.1927 9.79891 18.6029 10.4102C18.0183 9.83108 17.3043 9.39141 16.5283 9.14476C15.6177 8.86058 14.6346 8.81768 13.7034 9.02678C12.6169 9.26808 11.608 9.85788 10.8267 10.6836C10.1955 11.3432 9.71954 12.1582 9.42983 13.0375C8.37954 12.1903 7.32926 11.3485 6.2738 10.5013C7.38617 8.19568 9.38326 6.37801 11.727 5.54691Z"
        fill="#EA4335" />
    <path fill-rule="evenodd" clip-rule="evenodd"
        d="M5.44086 12.9996C5.61159 12.131 5.89098 11.2838 6.27903 10.4902C7.32929 11.3374 8.37957 12.1792 9.43503 13.0264C9.02112 14.2758 9.02112 15.6645 9.43503 16.9085C8.38474 17.7556 7.33448 18.6028 6.2842 19.4447C5.31152 17.4768 5.01661 15.1658 5.44086 12.9996Z"
        fill="#FBBC05" />
    <path fill-rule="evenodd" clip-rule="evenodd"
        d="M14.8727 13.1016C17.889 13.1016 20.9105 13.1016 23.927 13.1016C24.2269 14.8549 24.1597 16.6833 23.6837 18.3991C23.2439 19.9702 22.4109 21.4286 21.2468 22.5386C20.2276 21.7182 19.2083 20.8978 18.1891 20.0774C19.198 19.375 19.912 18.2383 20.1138 16.9943C18.365 16.9943 16.6163 16.9943 14.8676 16.9943C14.8727 15.6967 14.8727 14.3991 14.8727 13.1016Z"
        fill="#4285F4" />
    <path fill-rule="evenodd" clip-rule="evenodd"
        d="M6.2738 19.4503C7.32409 18.6084 8.37437 17.7613 9.42463 16.9141C9.82819 18.142 10.6043 19.2304 11.6287 19.9757C12.2702 20.4422 13.0049 20.7747 13.7706 20.9355C14.526 21.0964 15.3072 21.0749 16.0678 20.9409C16.8232 20.8015 17.5527 20.5173 18.189 20.0722C19.2083 20.8926 20.2275 21.713 21.2467 22.5334C20.1447 23.5897 18.7633 24.3082 17.3043 24.6567C15.6901 25.0374 13.9828 25.0481 12.3789 24.6031C11.1061 24.2546 9.91098 23.6272 8.88139 22.7747C7.80007 21.8846 6.89984 20.7371 6.2738 19.4503Z"
        fill="#34A853" />
</svg>