<svg width="30" height="30" viewBox="0 0 30 30" fill="none" xmlns="http://www.w3.org/2000/svg">
    <path
        d="M0.936187 15.4553C-0.547793 16.2661 -0.191562 18.5131 1.46885 18.8149L8.37304 20.7906C9.07432 20.9183 9.47823 21.2413 9.63961 21.9426L11.6633 28.6054C12.0454 30.266 14.2841 30.5123 15.0107 28.9735L26.1508 5.38101C26.8944 3.80627 25.2113 2.18914 23.6925 3.01913L0.936187 15.4553Z"
        fill="#091772" />
    <path
        d="M15.3083 5.17888L15.4241 5.40043L15.3083 5.17888L10.3442 7.77397C10.031 7.93768 9.64418 7.81492 9.48051 7.49508L6.26185 1.20479C5.97774 0.649545 6.54629 0.0629887 7.09254 0.309675L7.09255 0.309676L15.2753 4.00488C15.7672 4.22701 15.7875 4.92838 15.3083 5.17888Z"
        fill="#7A8BF5" stroke="#091772" stroke-width="0.5" />
    <path
        d="M25.6094 13.931L25.6093 13.931C25.3653 13.4464 24.6771 13.4612 24.4539 13.957L25.6094 13.931ZM25.6094 13.931L29.676 22.0023C29.9566 22.5592 29.3846 23.1421 28.8398 22.892L22.46 19.9622L22.4599 19.9622C22.1378 19.8144 21.9925 19.4279 22.1407 19.0984C22.1407 19.0984 22.1407 19.0984 22.1407 19.0984L24.4539 13.957L25.6094 13.931Z"
        fill="#7A8BF5" stroke="#091772" stroke-width="0.5" />
</svg>