<svg width="500" height="82" viewBox="0 0 500 82" fill="none" xmlns="http://www.w3.org/2000/svg">
    <path
        d="M12.0955 44.2748C9.27074 45.8045 9.94884 50.0432 13.1095 50.6124L26.2517 54.3395C27.5866 54.5802 28.3555 55.1895 28.6626 56.5125L32.5148 69.0811C33.2421 72.2137 37.5035 72.6782 38.8866 69.7755L60.0919 25.2708C61.5075 22.3003 58.3036 19.2497 55.4125 20.8154L12.0955 44.2748Z"
        fill="#091772" />
    <path
        d="M39.6733 25.3074C40.9366 24.653 40.8844 22.8262 39.5859 22.2451L24.0098 15.2745C22.5436 14.6183 21.0714 16.179 21.8091 17.6076L27.9359 29.4736C28.3666 30.3078 29.3911 30.6343 30.224 30.2028L39.6733 25.3074Z"
        fill="#7A8BF5" />
    <path
        d="M65.0118 58.7323C66.4739 59.3974 67.9556 57.8464 67.227 56.4131L59.4861 41.1876C58.8411 39.9183 57.0166 39.9587 56.4277 41.2553L52.0244 50.954C51.6364 51.8089 52.014 52.8174 52.8676 53.2055L65.0118 58.7323Z"
        fill="#7A8BF5" />
    <path
        d="M285.692 72.9816C275.645 73.0309 268.554 68.0158 266.799 61.1003C266.487 59.8721 267.497 58.7817 268.762 58.7756L277.077 58.735C278.193 58.7293 279.084 59.6117 279.621 60.5926C280.629 62.4376 282.802 63.5704 285.5 63.5568C288.781 63.5411 290.496 62.0364 290.487 60.1656C290.454 53.432 267.757 58.4519 267.682 43.0687C267.647 35.9609 273.671 30.0918 284.589 30.0384C294.279 29.991 300.115 34.8214 301.812 41.8015C302.117 43.0558 301.102 44.1826 299.813 44.1887L292.283 44.2258C291.19 44.231 290.314 43.3882 289.814 42.4152C288.892 40.6242 286.971 39.5344 284.226 39.5478C281.236 39.5625 279.592 40.7658 279.602 42.7914C279.635 49.4428 302.187 44.6244 302.473 60.18C302.544 67.4427 296.145 72.9306 285.692 72.9816Z"
        fill="#3D56F0" />
    <path
        d="M348.647 29.8606C354.854 29.8302 359.279 32.6554 361.539 36.3123L361.521 32.5807C361.515 31.3762 362.485 30.3951 363.688 30.3892L372.09 30.3481C373.293 30.3422 374.274 31.3154 374.278 32.5208L374.421 70.6962C374.426 71.9036 373.449 72.8849 372.243 72.8849H363.863C362.66 72.8849 361.685 71.9088 361.685 70.7041V66.2395C359.388 69.9007 354.99 72.7781 348.784 72.8086C338.622 72.8583 330.433 64.5223 330.369 51.356C330.304 38.1897 338.412 29.9107 348.647 29.8606ZM352.439 40.992C347.663 41.0154 343.342 44.6316 343.375 51.2923C343.407 57.9531 347.764 61.6636 352.539 61.64C357.315 61.6169 361.322 57.9618 361.289 51.2923C361.257 44.6224 357.26 40.9685 352.439 40.992Z"
        fill="#3D56F0" />
    <path
        d="M190.625 29.8154C196.831 29.8154 201.243 32.6622 203.485 36.3211V32.5985C203.485 31.3941 204.46 30.4176 205.662 30.4176H214.064C215.268 30.4176 216.243 31.3958 216.242 32.6013L216.192 70.5994C216.191 71.8027 215.216 72.7776 214.015 72.7776H205.662C204.46 72.7776 203.485 71.801 203.485 70.5967V66.2486C201.161 69.8984 196.759 72.7636 190.552 72.7636C180.39 72.7636 172.242 64.3783 172.242 51.212C172.242 38.0456 180.371 29.8154 190.625 29.8154ZM194.361 40.9653C189.577 40.9653 185.247 44.5513 185.247 51.212C185.247 57.8728 189.558 61.3429 194.343 61.3429C199.128 61.3429 203.187 57.8911 203.187 51.212C203.187 44.5329 199.202 41.3861 194.343 40.9653H194.361Z"
        fill="#3D56F0" />
    <path
        d="M237.706 29.8114C243.23 29.8114 248.014 32.3571 250.557 36.1984V18.9719C250.557 17.7674 251.532 16.791 252.735 16.791H261.139C262.342 16.791 263.317 17.7674 263.317 18.9719V70.5969C263.317 71.8016 262.342 72.7778 261.139 72.7778H252.747C251.547 72.7778 250.573 71.8051 250.57 70.603L250.557 66.1716C248.242 69.9946 243.831 72.7595 237.706 72.7595C227.462 72.7595 219.314 64.3833 219.314 51.2079C219.314 38.0324 227.48 29.8114 237.706 29.8114ZM241.443 40.9613C236.658 40.9613 232.329 44.5563 232.329 51.2079C232.329 57.8595 236.667 61.6096 241.443 61.6096C246.219 61.6096 250.022 57.8778 250.022 51.2079C250.022 44.5379 246.301 40.9613 241.443 40.9613Z"
        fill="#3D56F0" />
    <path
        d="M148.403 72.7917C136.145 72.7917 127.322 64.58 127.322 51.3134C127.322 38.0465 135.99 29.8438 148.403 29.8438C160.58 29.8438 169.174 37.9187 169.174 50.6382C169.173 51.2406 169.156 51.8425 169.122 52.4435C169.06 53.5492 168.121 54.3788 167.016 54.3788H140.991C140.482 54.3788 140.078 54.8159 140.155 55.3196C140.893 60.1445 144.098 62.3899 147.966 62.3899C149.354 62.4789 150.737 62.1391 151.927 61.4164C152.955 60.7918 153.796 59.9081 154.368 58.8574C154.533 58.5543 154.841 58.348 155.186 58.348H165.442C166.857 58.348 167.898 59.6857 167.355 60.9946C164.52 67.8259 157.646 72.7917 148.403 72.7917ZM155.226 47.2452C155.706 47.2444 156.101 46.8527 156.05 46.3742C155.624 42.3504 152.235 40.063 148.248 40.063C144.302 40.063 141.339 42.2653 140.326 46.2652C140.193 46.7868 140.606 47.2701 141.143 47.2692L155.226 47.2452Z"
        fill="#3D56F0" />
    <path
        d="M450.231 72.6834C437.97 72.6834 429.15 64.4716 429.15 51.2046C429.15 37.9381 437.818 29.7354 450.231 29.7354C462.409 29.7354 471.002 37.8104 471.002 50.5299C471.002 51.1322 470.984 51.7341 470.95 52.3352C470.889 53.4409 469.948 54.2705 468.842 54.2705H442.818C442.308 54.2705 441.908 54.7075 441.982 55.2113C442.722 60.0362 445.928 62.2816 449.795 62.2816C451.18 62.3706 452.565 62.0308 453.754 61.3081C454.782 60.6835 455.623 59.7998 456.198 58.749C456.363 58.4459 456.668 58.2396 457.012 58.2396H467.269C468.685 58.2396 469.726 59.5773 469.181 60.8863C466.346 67.7176 459.473 72.6834 450.231 72.6834ZM457.051 47.1369C457.535 47.136 457.927 46.7443 457.879 46.2659C457.452 42.242 454.064 39.9546 450.074 39.9546C446.128 39.9546 443.166 42.1569 442.152 46.1568C442.021 46.6785 442.435 47.1617 442.97 47.1609L457.051 47.1369Z"
        fill="#3D56F0" />
    <path d="M410.947 41.1699H403.191V41.3857H410.947V41.1699Z" fill="white" />
    <path
        d="M391.166 72.6457L380.357 72.6984C380.227 72.6993 380.098 72.674 379.978 72.6243C379.858 72.575 379.748 72.5022 379.656 72.4101C379.564 72.3181 379.492 72.2086 379.442 72.0882C379.392 71.9678 379.368 71.8392 379.368 71.7088L379.224 42.3016C379.21 39.2912 380.39 36.3983 382.506 34.2593C384.622 32.1203 387.5 30.9103 390.507 30.8956L405.919 30.8202C406.18 30.8093 406.434 30.9025 406.627 31.0795C406.819 31.2566 406.933 31.5028 406.944 31.7641C406.955 32.0254 406.862 32.2804 406.685 32.4729C406.508 32.6654 406.262 32.7797 406.001 32.7907C404.416 32.8805 405.273 33.0771 406.136 32.4615C408.561 30.7343 403.005 35.2142 406.268 35.1982L405.721 40.6755C405.723 41.223 404.501 41.0738 403.955 41.0765L397.365 41.1544C391.314 41.184 392.021 46.0894 392.056 53.2701L392.146 71.6555C392.147 71.9168 392.044 72.168 391.861 72.3534C391.677 72.5392 391.427 72.6443 391.166 72.6457Z"
        fill="#3D56F0" />
    <path d="M408.758 30.5986H404.88V41.1704H408.758V30.5986Z" fill="white" />
    <path
        d="M82.5109 70.4892C82.5109 71.6939 83.486 72.67 84.6886 72.67H93.2273C94.4299 72.67 95.405 71.6939 95.405 70.4892V49.7899C95.405 44.0507 98.5718 40.8794 103.473 40.8794C108.374 40.8794 111.541 44.0507 111.541 49.7899V70.4892C111.541 71.6939 112.516 72.67 113.719 72.67H122.182C123.385 72.67 124.36 71.6939 124.36 70.4892V48.053C124.36 36.7263 117.95 30.0812 108.374 30.0812C102.568 30.0812 97.9686 32.5731 95.405 36.1977V18.9719C95.405 17.7674 94.4299 16.791 93.2273 16.791H84.6886C83.486 16.791 82.5109 17.7674 82.5109 18.9719V70.4892Z"
        fill="#3D56F0" />
    <path
        d="M305.844 41.7928L305.792 31.1631L305.75 19.0829C305.746 17.8755 306.722 16.8945 307.928 16.8945H316.332C317.531 16.8945 318.505 17.8663 318.51 19.0677L318.548 30.2272C318.55 30.7094 318.942 31.0988 319.424 31.0965L324.75 31.0704C325.952 31.0645 326.932 32.0361 326.938 33.2406L326.969 39.5086C326.974 40.713 326.004 41.6942 324.801 41.7001L319.474 41.7261C318.993 41.7285 318.605 42.121 318.608 42.6028L318.685 58.4825C318.697 60.9551 319.75 61.9993 322.594 61.9854L324.973 61.9736C326.176 61.9679 327.156 62.9393 327.162 64.144L327.193 70.6307C327.199 71.8354 326.229 72.8164 325.026 72.822L320.696 72.8434C312.029 72.8857 305.96 69.2659 305.906 58.3988L305.844 41.7928Z"
        fill="#3D56F0" />
    <path
        d="M404.73 41.5771L404.678 30.9474L404.636 18.8672C404.632 17.6597 405.608 16.6787 406.814 16.6787H415.218C416.418 16.6787 417.392 17.6505 417.396 18.8519L417.435 30.0114C417.436 30.4937 417.828 30.883 418.31 30.8807L423.636 30.8546C424.838 30.8487 425.818 31.8204 425.824 33.0248L425.855 39.2928C425.861 40.4972 424.89 41.4784 423.688 41.4843L418.361 41.5104C417.88 41.5127 417.492 41.9052 417.494 42.3869L417.571 58.2668C417.584 60.7394 418.637 61.7836 421.48 61.7696L423.86 61.7579C425.062 61.7522 426.042 62.7235 426.048 63.9282L426.08 70.415C426.085 71.6192 425.115 72.6006 423.912 72.6063L419.583 72.6277C410.916 72.67 404.846 69.0502 404.793 58.183L404.73 41.5771Z"
        fill="#3D56F0" />
    <path
        d="M475.096 72.6883L485.902 72.6355C486.163 72.6342 486.416 72.5291 486.598 72.3433C486.781 72.1579 486.886 71.9067 486.882 71.6454L486.794 53.26C486.76 46.0793 486.05 41.1738 492.104 41.1442L498.693 41.0664C499.294 41.0634 499.76 40.606 499.76 40.0028V35.1881V32.8588V30.8145L485.244 30.8855C482.239 30.9002 479.36 32.1101 477.243 34.2492C475.126 36.3882 473.946 39.2811 473.963 42.2914L474.103 71.6986C474.103 71.8286 474.129 71.9577 474.177 72.0781C474.229 72.1985 474.303 72.308 474.395 72.4C474.486 72.492 474.595 72.5649 474.717 72.6142C474.835 72.6639 474.965 72.6892 475.096 72.6883Z"
        fill="#3D56F0" />
</svg>