<svg width="30" height="30" viewBox="0 0 30 30" fill="none" xmlns="http://www.w3.org/2000/svg">
    <path
        d="M27.7296 14.795L16.4093 3.48054L15.6505 2.72175C15.4776 2.55001 15.2438 2.45361 15.0001 2.45361C14.7564 2.45361 14.5226 2.55001 14.3497 2.72175L2.27063 14.795C2.09347 14.9715 1.95347 15.1816 1.85887 15.4131C1.76427 15.6446 1.717 15.8926 1.71985 16.1427C1.73157 17.1739 2.58997 17.9971 3.62122 17.9971H4.86633V27.5391H25.1339V17.9971H26.4054C26.9064 17.9971 27.378 17.8009 27.7325 17.4464C27.9071 17.2724 28.0454 17.0655 28.1394 16.8377C28.2335 16.6099 28.2814 16.3657 28.2804 16.1192C28.2804 15.6212 28.0841 15.1495 27.7296 14.795ZM16.6407 25.4298H13.3595V19.4532H16.6407V25.4298ZM23.0245 15.8878V25.4298H18.5157V18.7501C18.5157 18.1026 17.9913 17.5782 17.3439 17.5782H12.6564C12.0089 17.5782 11.4845 18.1026 11.4845 18.7501V25.4298H6.97571V15.8878H4.16321L15.003 5.05671L15.6798 5.73347L25.84 15.8878H23.0245Z"
        fill="#1B1F23" />
</svg>