<svg width="30" height="30" viewBox="0 0 30 30" fill="none" xmlns="http://www.w3.org/2000/svg">
    <path
        d="M25.4296 21.4454H23.37C23.2294 21.4454 23.0976 21.5069 23.0097 21.6153C22.8046 21.8643 22.5849 22.1045 22.3534 22.3331C21.4068 23.2806 20.2856 24.0357 19.0517 24.5567C17.7733 25.0966 16.3993 25.3736 15.0116 25.3711C13.6083 25.3711 12.2489 25.0957 10.9716 24.5567C9.7377 24.0357 8.61644 23.2806 7.66984 22.3331C6.72155 21.3887 5.9654 20.2694 5.44328 19.0372C4.90129 17.7598 4.62883 16.4034 4.62883 15C4.62883 13.5967 4.90422 12.2403 5.44328 10.9629C5.96476 9.72954 6.71476 8.61918 7.66984 7.66704C8.62492 6.71489 9.73527 5.96489 10.9716 5.4434C12.2489 4.90434 13.6083 4.62895 15.0116 4.62895C16.415 4.62895 17.7743 4.90141 19.0517 5.4434C20.288 5.96489 21.3984 6.71489 22.3534 7.66704C22.5849 7.89848 22.8017 8.13872 23.0097 8.38481C23.0976 8.49321 23.2323 8.55473 23.37 8.55473H25.4296C25.6142 8.55473 25.7284 8.34965 25.6259 8.19438C23.3788 4.70219 19.4472 2.39067 14.9794 2.40239C7.95988 2.41997 2.33195 8.11821 2.40226 15.129C2.47258 22.0284 8.09172 27.5977 15.0116 27.5977C19.4677 27.5977 23.3818 25.2891 25.6259 21.8057C25.7255 21.6504 25.6142 21.4454 25.4296 21.4454ZM28.0341 14.8155L23.8769 11.5342C23.7216 11.4112 23.496 11.5225 23.496 11.7188V13.9454H14.2968C14.1679 13.9454 14.0624 14.0508 14.0624 14.1797V15.8204C14.0624 15.9493 14.1679 16.0547 14.2968 16.0547H23.496V18.2813C23.496 18.4776 23.7245 18.5889 23.8769 18.4659L28.0341 15.1846C28.0621 15.1627 28.0848 15.1347 28.1003 15.1027C28.1159 15.0707 28.124 15.0356 28.124 15C28.124 14.9645 28.1159 14.9294 28.1003 14.8974C28.0848 14.8654 28.0621 14.8374 28.0341 14.8155Z"
        fill="black" />
</svg>