<svg width="30" height="30" viewBox="0 0 30 30" fill="none" xmlns="http://www.w3.org/2000/svg">
    <path
        d="M25.0772 23.372C26.4236 21.7521 27.36 19.8318 27.8072 17.7735C28.2544 15.7151 28.1993 13.5793 27.6466 11.5468C27.0938 9.51426 26.0596 7.64475 24.6316 6.09642C23.2035 4.54809 21.4235 3.3665 19.4421 2.65159C17.4608 1.93668 15.3364 1.70949 13.2487 1.98924C11.161 2.26899 9.17139 3.04745 7.44817 4.25876C5.72495 5.47008 4.31883 7.07861 3.34874 8.94829C2.37866 10.818 1.87316 12.8938 1.87501 15.0002C1.87571 18.0622 2.95477 21.0262 4.92282 23.372L4.90407 23.388C4.96969 23.4667 5.04469 23.5342 5.11219 23.612C5.19657 23.7086 5.2875 23.7995 5.37469 23.8933C5.63719 24.1783 5.90719 24.452 6.19032 24.7089C6.27657 24.7877 6.36563 24.8608 6.45282 24.9358C6.75282 25.1945 7.06125 25.4402 7.38094 25.6689C7.42219 25.697 7.45969 25.7336 7.50094 25.7627V25.7514C9.69666 27.2966 12.316 28.1258 15.0009 28.1258C17.6858 28.1258 20.3052 27.2966 22.5009 25.7514V25.7627C22.5422 25.7336 22.5788 25.697 22.6209 25.6689C22.9397 25.4392 23.2491 25.1945 23.5491 24.9358C23.6363 24.8608 23.7253 24.7867 23.8116 24.7089C24.0947 24.4511 24.3647 24.1783 24.6272 23.8933C24.7144 23.7995 24.8044 23.7086 24.8897 23.612C24.9563 23.5342 25.0322 23.4667 25.0978 23.387L25.0772 23.372ZM15 7.50016C15.8344 7.50016 16.65 7.74759 17.3438 8.21115C18.0376 8.67471 18.5783 9.33359 18.8976 10.1045C19.2169 10.8753 19.3005 11.7236 19.1377 12.5419C18.9749 13.3603 18.5731 14.112 17.9831 14.702C17.3931 15.292 16.6414 15.6938 15.823 15.8566C15.0047 16.0194 14.1564 15.9358 13.3856 15.6165C12.6147 15.2972 11.9558 14.7565 11.4922 14.0627C11.0287 13.369 10.7813 12.5533 10.7813 11.7189C10.7813 10.6 11.2257 9.52697 12.0169 8.73581C12.8081 7.94464 13.8811 7.50016 15 7.50016ZM7.50657 23.372C7.52283 22.1411 8.02308 20.966 8.89909 20.101C9.7751 19.2361 10.9564 18.7508 12.1875 18.7502H17.8125C19.0436 18.7508 20.2249 19.2361 21.1009 20.101C21.9769 20.966 22.4772 22.1411 22.4934 23.372C20.4374 25.2248 17.7677 26.2502 15 26.2502C12.2323 26.2502 9.56265 25.2248 7.50657 23.372Z"
        fill="#1B1F23" />
</svg>