<svg width="30" height="30" viewBox="0 0 30 30" fill="none" xmlns="http://www.w3.org/2000/svg">
    <path
        d="M26.7188 8.85644L22.9688 11.0156V6.5625C22.9688 5.52832 22.1279 4.6875 21.0938 4.6875H3.75C2.71582 4.6875 1.875 5.52832 1.875 6.5625V23.4375C1.875 24.4717 2.71582 25.3125 3.75 25.3125H21.0938C22.1279 25.3125 22.9688 24.4717 22.9688 23.4375V18.9844L26.7188 21.1436C27.3428 21.5039 28.125 21.0527 28.125 20.335V9.66797C28.125 8.94727 27.3428 8.49609 26.7188 8.85644ZM20.8594 23.2031H3.98438V6.79688H20.8594V23.2031ZM26.0156 18.3105L22.9688 16.5586V13.4443L26.0156 11.6895V18.3105ZM6.09375 10.5469H9.375C9.50391 10.5469 9.60938 10.4414 9.60938 10.3125V8.90625C9.60938 8.77734 9.50391 8.67188 9.375 8.67188H6.09375C5.96484 8.67188 5.85938 8.77734 5.85938 8.90625V10.3125C5.85938 10.4414 5.96484 10.5469 6.09375 10.5469Z"
        fill="#1B1F23" />
</svg>